<mxfile host="65bd71144e">
    <diagram id="MtCE5jzraeUFnyB5sYMj" name="Page-1">
        <mxGraphModel dx="1974" dy="719" grid="1" gridSize="10" guides="1" tooltips="1" connect="1" arrows="1" fold="1" page="1" pageScale="1" pageWidth="850" pageHeight="1100" math="0" shadow="0">
            <root>
                <mxCell id="0"/>
                <mxCell id="1" parent="0"/>
                <mxCell id="2" value="Server&amp;nbsp;&lt;div&gt;1&lt;/div&gt;" style="whiteSpace=wrap;html=1;aspect=fixed;" parent="1" vertex="1">
                    <mxGeometry x="280" y="120" width="80" height="80" as="geometry"/>
                </mxCell>
                <mxCell id="4" value="Server&lt;div&gt;2&lt;/div&gt;" style="whiteSpace=wrap;html=1;aspect=fixed;" parent="1" vertex="1">
                    <mxGeometry x="570" y="120" width="80" height="80" as="geometry"/>
                </mxCell>
                <mxCell id="5" value="" style="endArrow=classic;html=1;" parent="1" edge="1">
                    <mxGeometry width="50" height="50" relative="1" as="geometry">
                        <mxPoint x="850" y="450" as="sourcePoint"/>
                        <mxPoint x="690" y="450" as="targetPoint"/>
                    </mxGeometry>
                </mxCell>
                <mxCell id="6" value="" style="endArrow=classic;html=1;" parent="1" edge="1">
                    <mxGeometry width="50" height="50" relative="1" as="geometry">
                        <mxPoint x="400" y="294.5" as="sourcePoint"/>
                        <mxPoint x="560" y="294.5" as="targetPoint"/>
                    </mxGeometry>
                </mxCell>
                <mxCell id="9" value="Client" style="whiteSpace=wrap;html=1;aspect=fixed;" parent="1" vertex="1">
                    <mxGeometry x="15" y="120" width="80" height="80" as="geometry"/>
                </mxCell>
                <mxCell id="10" value="" style="endArrow=classic;html=1;" parent="1" edge="1">
                    <mxGeometry width="50" height="50" relative="1" as="geometry">
                        <mxPoint x="95" y="240" as="sourcePoint"/>
                        <mxPoint x="255" y="240" as="targetPoint"/>
                    </mxGeometry>
                </mxCell>
                <mxCell id="11" value="Command:&lt;div&gt;pass_msg(servers, target)&lt;/div&gt;" style="text;html=1;align=center;verticalAlign=middle;resizable=0;points=[];autosize=1;strokeColor=none;fillColor=none;" parent="1" vertex="1">
                    <mxGeometry x="-30" y="220" width="160" height="40" as="geometry"/>
                </mxCell>
                <mxCell id="12" value="&lt;span style=&quot;background-color: transparent;&quot;&gt;Send pass_msg to next server&lt;/span&gt;" style="text;html=1;align=center;verticalAlign=middle;resizable=0;points=[];autosize=1;strokeColor=none;fillColor=none;" parent="1" vertex="1">
                    <mxGeometry x="225" y="280" width="190" height="30" as="geometry"/>
                </mxCell>
                <mxCell id="15" value="add servers in [servers]&amp;nbsp;&lt;div&gt;to friends list&lt;/div&gt;" style="text;html=1;align=center;verticalAlign=middle;resizable=0;points=[];autosize=1;strokeColor=none;fillColor=none;" parent="1" vertex="1">
                    <mxGeometry x="245" y="323" width="150" height="40" as="geometry"/>
                </mxCell>
                <mxCell id="16" value="Server Returns&lt;div&gt;Online signal sent&lt;/div&gt;" style="text;html=1;align=center;verticalAlign=middle;resizable=0;points=[];autosize=1;strokeColor=none;fillColor=none;" parent="1" vertex="1">
                    <mxGeometry x="260" y="383" width="120" height="40" as="geometry"/>
                </mxCell>
                <mxCell id="17" value="" style="endArrow=classic;html=1;" parent="1" edge="1">
                    <mxGeometry width="50" height="50" relative="1" as="geometry">
                        <mxPoint x="260" y="410" as="sourcePoint"/>
                        <mxPoint x="95" y="410" as="targetPoint"/>
                    </mxGeometry>
                </mxCell>
                <mxCell id="18" value="Server&lt;div&gt;3&lt;/div&gt;&lt;div&gt;[target]&lt;/div&gt;" style="whiteSpace=wrap;html=1;aspect=fixed;" vertex="1" parent="1">
                    <mxGeometry x="870" y="120" width="80" height="80" as="geometry"/>
                </mxCell>
                <mxCell id="22" value="Server isnt target" style="text;html=1;align=center;verticalAlign=middle;resizable=0;points=[];autosize=1;strokeColor=none;fillColor=none;" vertex="1" parent="1">
                    <mxGeometry x="265" y="228" width="110" height="30" as="geometry"/>
                </mxCell>
                <mxCell id="23" value="" style="endArrow=classic;html=1;" edge="1" parent="1">
                    <mxGeometry width="50" height="50" relative="1" as="geometry">
                        <mxPoint x="690" y="347.5" as="sourcePoint"/>
                        <mxPoint x="850" y="347.5" as="targetPoint"/>
                    </mxGeometry>
                </mxCell>
                <mxCell id="24" value="&lt;span style=&quot;background-color: transparent;&quot;&gt;Send pass_msg to next server&lt;/span&gt;" style="text;html=1;align=center;verticalAlign=middle;resizable=0;points=[];autosize=1;strokeColor=none;fillColor=none;" vertex="1" parent="1">
                    <mxGeometry x="515" y="333" width="190" height="30" as="geometry"/>
                </mxCell>
                <mxCell id="25" value="Server isnt target" style="text;html=1;align=center;verticalAlign=middle;resizable=0;points=[];autosize=1;strokeColor=none;fillColor=none;" vertex="1" parent="1">
                    <mxGeometry x="555" y="281" width="110" height="30" as="geometry"/>
                </mxCell>
                <mxCell id="26" value="Server is target&lt;div&gt;or&lt;/div&gt;&lt;div&gt;Server isnt target and server is last in list&lt;/div&gt;" style="text;html=1;align=center;verticalAlign=middle;resizable=0;points=[];autosize=1;strokeColor=none;fillColor=none;" vertex="1" parent="1">
                    <mxGeometry x="770" y="323" width="240" height="60" as="geometry"/>
                </mxCell>
                <mxCell id="27" value="Return&amp;nbsp;&lt;div&gt;Server [number] found&lt;/div&gt;&lt;div&gt;or&lt;/div&gt;&lt;div&gt;No server&lt;/div&gt;" style="text;html=1;align=center;verticalAlign=middle;resizable=0;points=[];autosize=1;strokeColor=none;fillColor=none;" vertex="1" parent="1">
                    <mxGeometry x="850" y="418" width="140" height="70" as="geometry"/>
                </mxCell>
                <mxCell id="28" value="Save response" style="text;html=1;align=center;verticalAlign=middle;resizable=0;points=[];autosize=1;strokeColor=none;fillColor=none;" vertex="1" parent="1">
                    <mxGeometry x="550" y="438" width="100" height="30" as="geometry"/>
                </mxCell>
                <mxCell id="29" value="Return response" style="text;html=1;align=center;verticalAlign=middle;resizable=0;points=[];autosize=1;strokeColor=none;fillColor=none;" vertex="1" parent="1">
                    <mxGeometry x="545" y="510" width="110" height="30" as="geometry"/>
                </mxCell>
                <mxCell id="30" value="" style="endArrow=classic;html=1;" edge="1" parent="1">
                    <mxGeometry width="50" height="50" relative="1" as="geometry">
                        <mxPoint x="550" y="524.5" as="sourcePoint"/>
                        <mxPoint x="390" y="524.5" as="targetPoint"/>
                    </mxGeometry>
                </mxCell>
                <mxCell id="31" value="Save response" style="text;html=1;align=center;verticalAlign=middle;resizable=0;points=[];autosize=1;strokeColor=none;fillColor=none;" vertex="1" parent="1">
                    <mxGeometry x="270" y="510" width="100" height="30" as="geometry"/>
                </mxCell>
                <mxCell id="32" value="Return response" style="text;html=1;align=center;verticalAlign=middle;resizable=0;points=[];autosize=1;strokeColor=none;fillColor=none;" vertex="1" parent="1">
                    <mxGeometry x="265" y="582" width="110" height="30" as="geometry"/>
                </mxCell>
                <mxCell id="33" value="" style="endArrow=classic;html=1;" edge="1" parent="1">
                    <mxGeometry width="50" height="50" relative="1" as="geometry">
                        <mxPoint x="270" y="596.5" as="sourcePoint"/>
                        <mxPoint x="110" y="596.5" as="targetPoint"/>
                    </mxGeometry>
                </mxCell>
            </root>
        </mxGraphModel>
    </diagram>
</mxfile>